<svg xmlns="http://www.w3.org/2000/svg" xmlns:xlink="http://www.w3.org/1999/xlink" viewBox="0 0 600 600"><defs><linearGradient id="b" x1="100%" x2="0%" y1="0%" y2="100%"><stop offset="0%" stop-color="#00F6D2" stop-opacity=".2"/><stop offset="100%" stop-color="#FE52FF" stop-opacity=".2"/></linearGradient><linearGradient id="c" x1="100%" x2="0%" y1="0%" y2="100%"><stop offset="0%" stop-color="#00F6D2"/><stop offset="100%" stop-color="#FE52FF"/></linearGradient><linearGradient id="d" x1="100%" x2="0%" y1="46%" y2="54%"><stop offset="0%" stop-color="#00F6D2"/><stop offset="100%" stop-color="#FE52FF"/></linearGradient><path id="a" d="M0 0h600v600H0z"/></defs><g fill="none" fill-rule="evenodd"><use xlink:href="#a" fill="#000"/><use xlink:href="#a" fill="url(#b)"/><g fill-rule="nonzero"><path fill="url(#c)" d="M15 129c9 0 16-7 16-16 0-8-7-15-16-15-8 0-15 7-15 15 0 9 7 16 15 16Z" transform="translate(45 235)"/><path fill="url(#d)" d="M347 127V67c0-26-19-34-40-34-14 0-29 4-40 14l9 16c8-7 17-11 27-11 12 0 20 7 20 16v12c-6-7-17-11-29-11-15 0-32 8-32 30 0 20 17 30 32 30 12 0 23-4 29-12v10h24ZM205 33c27 0 46 20 46 50v6h-69c2 11 11 21 27 21 8 0 18-4 24-9l11 15c-9 9-24 13-38 13-28 0-49-19-49-48 0-27 20-48 48-48ZM76 0v47c7-10 17-14 28-14 23 0 41 18 41 48 0 31-18 48-41 48-11 0-21-5-28-14v12H52V0h24Zm406 33c17 0 27 9 27 27v67h-24V69c0-9-4-15-14-15-8 0-15 6-19 11v62h-24V69c0-9-4-15-14-15-8 0-15 6-19 11v62h-24V35h24v12c4-6 16-14 30-14s22 6 26 16c5-8 17-16 31-16ZM304 85c8 0 15 3 19 8v12c-4 5-11 8-19 8-10 0-17-5-17-14s7-14 17-14ZM97 54c-8 0-17 5-21 11v32c4 6 13 11 21 11 14 0 23-11 23-27s-9-27-23-27Zm108-2c-15 0-22 11-23 20h45c0-9-6-20-22-20Z" transform="translate(45 235)"/></g></g></svg>