<svg xmlns="http://www.w3.org/2000/svg" viewBox="0 0 600 600"><defs><linearGradient id="a" x1="0%" x2="54.8%" y1="50.2%" y2="50.2%"><stop offset="0%" stop-color="#F3FFD4" stop-opacity="0"/><stop offset="100%" stop-color="#F3FFD4"/></linearGradient><linearGradient id="b" x1="99.4%" x2="35.8%" y1="49.8%" y2="49.8%"><stop offset="0%" stop-color="#A4E000" stop-opacity="0"/><stop offset="100%" stop-color="#A4E000"/></linearGradient><linearGradient id="c" x1="100.4%" x2="48.9%" y1="50.1%" y2="50.1%"><stop offset="0%" stop-color="#516B04" stop-opacity="0"/><stop offset="100%" stop-color="#628008"/></linearGradient><linearGradient id="d" x1="99.9%" x2="41.1%" y1="50.2%" y2="50.2%"><stop offset="0%" stop-color="#A6B500" stop-opacity="0"/><stop offset="100%" stop-color="#A6B500"/></linearGradient></defs><g fill="none" fill-rule="evenodd"><path fill="#1E2901" d="M0 0h600v600H0z"/><g fill-rule="nonzero"><path fill="#3F5400" d="M300 354h98l-98-171V80l192 329H300z"/><path fill="#A4E000" d="M300 354h-98l98-171V80L108 409h192z"/><path fill="url(#a)" d="m0 103 235 109v11L0 172z" transform="translate(65 80)"/><path fill="url(#b)" d="M471 71 235 212v4l236-99z" transform="translate(65 80)"/><path fill="url(#c)" d="m471 207-236 16v-4l236-57z" transform="translate(65 80)"/><path fill="url(#d)" d="m471 117-236 98v4l236-57z" transform="translate(65 80)"/><path fill="#F3FFD4" d="m301 238 17 20h-34l17-20Z"/><path fill="#3F5400" d="m301 342-17-20h34l-17 20Z"/><path fill="#A4E000" d="M301 237h1l34 20h-18a4819 4819 0 0 0-17-20Zm0 0a26182 26182 0 0 0-17 20h-18a27793 27793 0 0 0 35-20Z"/><path fill="#A6B500" d="M284 259h34v64h-34v-64Z"/><path fill="#5E8000" d="M266 259h18v64h-18v-64Zm52 0h18v64h-18v-64Z"/><path fill="#88AB00" d="m284 322 17 20-35-20h18Zm52 0-35 20 17-20h18Z"/><path fill="#F3FFD4" d="M82 500h11v-43H82v25l-18-25H53v43h11v-26zm45 0h32v-9h-21v-8h21v-9h-21v-8h21v-9h-32zm65 0h11v-15h11c10 0 15-6 15-14 0-7-5-14-15-14h-22v43Zm26-29c0 3-3 5-6 5h-9v-10h9c3 0 6 2 6 5Zm72 29h11v-43h-11v16h-18v-16h-11v43h11v-17h18zm69 0h13l-9-16c4-1 9-5 9-13s-6-14-15-14h-22v43h11v-15h6l7 15Zm1-29c0 3-2 5-5 5h-9v-10h9c3 0 5 2 5 5Zm45 29h11v-43h-11zm55 0h11v-33h12v-10h-35v10h12zm55 0h32v-9h-21v-8h21v-9h-21v-8h21v-9h-32z"/></g></g></svg>
